<svg width="100" height="100" viewBox="0 0 100 100" fill="none" xmlns="http://www.w3.org/2000/svg">
<circle cx="40" cy="40" r="40" fill="#F8CD5F"/>
<path d="M37.271 63.64C34.1137 63.64 31.0203 63.192 27.991 62.296C25.0043 61.3573 22.487 60.0773 20.439 58.456L24.023 51.992C25.6443 53.3147 27.607 54.3813 29.911 55.192C32.215 56.0027 34.6257 56.408 37.143 56.408C40.1297 56.408 42.455 55.8107 44.119 54.616C45.783 53.3787 46.615 51.7147 46.615 49.624C46.615 47.576 45.847 45.9547 44.311 44.76C42.775 43.5653 40.3003 42.968 36.887 42.968H32.791V37.272L45.591 22.04L46.679 25.176H22.615V18.2H53.143V23.768L40.343 39L35.991 36.44H38.487C43.991 36.44 48.1083 37.6773 50.839 40.152C53.6123 42.584 54.999 45.72 54.999 49.56C54.999 52.0773 54.359 54.4027 53.079 56.536C51.799 58.6693 49.8363 60.3973 47.191 61.72C44.5883 63 41.2817 63.64 37.271 63.64Z" fill="black"/>
</svg>
