<svg width="100" height="100" viewBox="0 0 100 100" fill="none" xmlns="http://www.w3.org/2000/svg">
<circle cx="40" cy="40" r="40" fill="#F8CD5F"/>
<path d="M41.6455 63.64C37.5922 63.64 34.1148 62.7867 31.2135 61.08C28.3122 59.3307 26.0935 56.8133 24.5575 53.528C23.0215 50.2427 22.2535 46.1893 22.2535 41.368C22.2535 36.248 23.1708 31.9173 25.0055 28.376C26.8828 24.8347 29.4642 22.1467 32.7495 20.312C36.0775 18.4773 39.8962 17.56 44.2055 17.56C46.4668 17.56 48.6215 17.7947 50.6695 18.264C52.7602 18.7333 54.5308 19.4587 55.9815 20.44L52.9095 26.712C51.6722 25.9013 50.3282 25.3467 48.8775 25.048C47.4695 24.7067 45.9762 24.536 44.3975 24.536C40.1735 24.536 36.8242 25.8373 34.3495 28.44C31.8748 31.0427 30.6375 34.8827 30.6375 39.96C30.6375 40.7707 30.6588 41.7307 30.7015 42.84C30.7442 43.9067 30.8935 44.9947 31.1495 46.104L28.5895 43.288C29.3575 41.5387 30.4028 40.088 31.7255 38.936C33.0908 37.7413 34.6908 36.8453 36.5255 36.248C38.4028 35.6507 40.4295 35.352 42.6055 35.352C45.5495 35.352 48.1735 35.928 50.4775 37.08C52.7815 38.1893 54.6162 39.7893 55.9815 41.88C57.3468 43.928 58.0295 46.3387 58.0295 49.112C58.0295 52.056 57.3042 54.616 55.8535 56.792C54.4028 58.968 52.4402 60.6533 49.9655 61.848C47.4908 63.0427 44.7175 63.64 41.6455 63.64ZM41.1975 57.112C42.9042 57.112 44.4188 56.8133 45.7415 56.216C47.0642 55.576 48.0882 54.68 48.8135 53.528C49.5815 52.376 49.9655 51.032 49.9655 49.496C49.9655 47.1493 49.1548 45.2933 47.5335 43.928C45.9122 42.5627 43.7362 41.88 41.0055 41.88C39.2135 41.88 37.6348 42.2213 36.2695 42.904C34.9468 43.544 33.8802 44.44 33.0695 45.592C32.3015 46.744 31.9175 48.0667 31.9175 49.56C31.9175 50.9253 32.2802 52.184 33.0055 53.336C33.7308 54.488 34.7762 55.4053 36.1415 56.088C37.5495 56.7707 39.2348 57.112 41.1975 57.112Z" fill="black"/>
</svg>
