<svg width="100" height="100" viewBox="0 0 100 100" fill="none" xmlns="http://www.w3.org/2000/svg">
<circle cx="40" cy="40" r="40" fill="#F8CD5F"/>
<path d="M22.615 63V57.432L40.407 40.536C41.9003 39.128 43.0097 37.8907 43.735 36.824C44.4603 35.7573 44.9297 34.776 45.143 33.88C45.399 32.9413 45.527 32.0667 45.527 31.256C45.527 29.208 44.823 27.6293 43.415 26.52C42.007 25.368 39.9377 24.792 37.207 24.792C35.031 24.792 33.047 25.176 31.255 25.944C29.5057 26.712 27.991 27.8853 26.711 29.464L20.887 24.984C22.6363 22.6373 24.983 20.824 27.927 19.544C30.9137 18.2213 34.2417 17.56 37.911 17.56C41.1537 17.56 43.9697 18.0933 46.359 19.16C48.791 20.184 50.647 21.656 51.927 23.576C53.2497 25.496 53.911 27.7787 53.911 30.424C53.911 31.8747 53.719 33.3253 53.335 34.776C52.951 36.184 52.2257 37.6773 51.159 39.256C50.0923 40.8347 48.535 42.6053 46.487 44.568L31.191 59.096L29.463 55.96H55.639V63H22.615Z" fill="black"/>
</svg>
