<svg width="100" height="100" viewBox="0 0 100 100" fill="none" xmlns="http://www.w3.org/2000/svg">
<circle cx="40" cy="40" r="40" fill="#F8CD5F"/>
<path d="M37.9765 63.64C34.8192 63.64 31.7258 63.192 28.6965 62.296C25.7098 61.3573 23.1925 60.0773 21.1445 58.456L24.6645 51.992C26.2858 53.3147 28.2485 54.3813 30.5525 55.192C32.8992 56.0027 35.3312 56.408 37.8485 56.408C40.7925 56.408 43.0965 55.7893 44.7605 54.552C46.4672 53.3147 47.3205 51.6507 47.3205 49.56C47.3205 48.152 46.9578 46.9147 46.2325 45.848C45.5498 44.7813 44.3125 43.9707 42.5205 43.416C40.7712 42.8613 38.3605 42.584 35.2885 42.584H24.4725L26.7765 18.2H53.0805V25.176H29.8485L34.2005 21.208L32.4725 39.448L28.1205 35.544H37.1445C41.5818 35.544 45.1445 36.1413 47.8325 37.336C50.5632 38.488 52.5472 40.1093 53.7845 42.2C55.0645 44.248 55.7045 46.5947 55.7045 49.24C55.7045 51.8427 55.0645 54.232 53.7845 56.408C52.5045 58.584 50.5418 60.3333 47.8965 61.656C45.2938 62.9787 41.9872 63.64 37.9765 63.64Z" fill="black"/>
</svg>
